<svg xmlns="http://www.w3.org/2000/svg" viewBox="0 0 160 230.05"><defs><style>.cls-1{fill:#a00d95;}.cls-2{fill:#520254;}.cls-3{fill:none;}.cls-3,.cls-4{stroke:#520254;stroke-miterlimit:10;stroke-width:6px;}.cls-4{fill:#fff;}</style></defs><title>Asset 4</title><g id="Layer_2" data-name="Layer 2"><g id="Layer_1-2" data-name="Layer 1"><polygon class="cls-1" points="61.49 150.91 70.97 160.39 58.34 173.02 48.86 163.54 39.38 173.02 26.75 160.39 36.23 150.91 26.75 141.43 39.38 128.8 48.86 138.28 58.34 128.8 70.97 141.43 61.49 150.91"/><polygon class="cls-1" points="124.02 150.91 133.5 160.39 120.87 173.02 111.39 163.54 101.91 173.02 89.28 160.39 98.76 150.91 89.28 141.43 101.91 128.8 111.39 138.28 120.87 128.8 133.5 141.43 124.02 150.91"/><path class="cls-1" d="M80,70.05a80,80,0,1,0,80,80A80.53,80.53,0,0,0,80,70.05Zm-.5,149.5A70,70,0,0,1,73.22,79.83q3.11-.28,6.28-.28a70,70,0,0,1,0,140Z"/><polygon class="cls-2" points="61.49 150.91 70.97 160.39 58.34 173.02 48.86 163.54 39.38 173.02 26.75 160.39 36.23 150.91 26.75 141.43 39.38 128.8 48.86 138.28 58.34 128.8 70.97 141.43 61.49 150.91"/><polygon class="cls-2" points="124.02 150.91 133.5 160.39 120.87 173.02 111.39 163.54 101.91 173.02 89.28 160.39 98.76 150.91 89.28 141.43 101.91 128.8 111.39 138.28 120.87 128.8 133.5 141.43 124.02 150.91"/><polygon class="cls-1" points="61.49 150.91 70.97 160.39 58.34 173.02 48.86 163.54 39.38 173.02 26.75 160.39 36.23 150.91 26.75 141.43 39.38 128.8 48.86 138.28 58.34 128.8 70.97 141.43 61.49 150.91"/><polygon class="cls-1" points="124.02 150.91 133.5 160.39 120.87 173.02 111.39 163.54 101.91 173.02 89.28 160.39 98.76 150.91 89.28 141.43 101.91 128.8 111.39 138.28 120.87 128.8 133.5 141.43 124.02 150.91"/><path class="cls-3" d="M85.14,97.57s-36.64-47.89-22-62.65S99.21,44.71,121,37.51s-9.17-13.91-14.1-27.12"/><path class="cls-4" d="M79.5,79.55q-3.18,0-6.28.28a70,70,0,1,0,6.28-.28ZM71,160.39,58.34,173l-9.48-9.48L39.38,173,26.75,160.39l9.48-9.48-9.48-9.48L39.38,128.8l9.48,9.48,9.48-9.48L71,141.43l-9.48,9.48ZM120.87,173l-9.48-9.48L101.91,173,89.28,160.39l9.48-9.48-9.48-9.48,12.63-12.63,9.48,9.48,9.48-9.48,12.63,12.63L124,150.91l9.48,9.48Z"/><polygon class="cls-1" points="111 4.16 115.17 0 115.76 5.52 121.92 4.31 118.7 9.08 124.5 11.28 118.7 13.47 121.92 18.25 115.76 17.03 115.17 22.55 111 18.39 106.83 22.55 106.24 17.03 100.08 18.25 103.3 13.47 97.5 11.28 103.3 9.08 100.08 4.31 106.24 5.52 106.83 0 111 4.16"/></g></g></svg>