<svg xmlns="http://www.w3.org/2000/svg" viewBox="0 0 160 231.05"><defs><style>.cls-1{fill:#a00d95;}.cls-2{fill:#520254;}.cls-3,.cls-4{fill:none;stroke-miterlimit:10;}.cls-3{stroke:#520254;stroke-width:6px;}.cls-4{stroke:#a00d95;stroke-width:8px;}</style></defs><title>Victory Bomb</title><g id="Layer_2" data-name="Layer 2"><g id="Layer_1-2" data-name="Layer 1"><circle class="cls-1" cx="80" cy="151.05" r="80"/><circle class="cls-2" cx="79.5" cy="150.55" r="70"/><path class="cls-3" d="M85.14,98.57s-36.64-47.89-22-62.65S99.21,45.71,121,38.51s-9.17-13.91-14.1-27.12"/><polygon class="cls-1" points="111 4.16 115.17 0 115.76 5.52 121.92 4.31 118.7 9.08 124.5 11.28 118.7 13.47 121.92 18.25 115.76 17.03 115.17 22.55 111 18.39 106.83 22.55 106.24 17.03 100.08 18.25 103.3 13.47 97.5 11.28 103.3 9.08 100.08 4.31 106.24 5.52 106.83 0 111 4.16"/><path class="cls-4" d="M66.58,130.8c-1.07-1.16-10.39-11-24.34-9.63A29.08,29.08,0,0,0,24.5,130"/><path class="cls-4" d="M124.5,130.8c-1.06-1.16-10.39-11-24.33-9.63A29.12,29.12,0,0,0,82.42,130"/><path class="cls-4" d="M51.5,165.55c1.31,1.55,12.84,14.69,30.07,12.82,12.14-1.31,19.77-9.27,21.93-11.69"/></g></g></svg>